<svg width="467" height="75" viewBox="0 0 467 75" fill="none" xmlns="http://www.w3.org/2000/svg">
<path d="M25 10.0002C38.8071 10.0002 50 21.1931 50 35.0002C49.9999 47.0323 41.4995 57.0769 30.1768 59.4612V24.7698C30.1767 23.5566 29.7796 22.5533 28.9863 21.76C28.193 20.9201 27.1198 20.5003 25.7666 20.5002C25.2534 20.5002 24.6934 20.5703 24.0869 20.7102C23.527 20.8502 23.0135 21.0838 22.5469 21.4104L12.4668 28.1301C11.0202 29.0634 10.297 30.2766 10.2969 31.7698C10.2969 32.9364 10.7166 33.9405 11.5566 34.7805C12.3965 35.6202 13.3764 36.0402 14.4961 36.0403C15.4761 36.0403 16.293 35.7831 16.9463 35.2698L21.0762 32.2151V59.6926C9.13327 57.8099 9.54473e-05 47.4722 0 35.0002C0 21.1931 11.1929 10.0002 25 10.0002Z" fill="#0F2854"/>
<path d="M46 48.5001C44.2776 51.295 42.1608 53.577 39.5 55.5001C36.8392 57.4232 33.5 59.0001 30.2 59.4455V38.6667L46 48.5001Z" fill="#FF9D00"/>
<path d="M55.9184 59V20.92H64.5284V28.41L63.8284 27.08C64.7151 24.7933 66.1618 23.0667 68.1684 21.9C70.2218 20.6867 72.6018 20.08 75.3084 20.08C78.1084 20.08 80.5818 20.6867 82.7284 21.9C84.9218 23.1133 86.6251 24.8167 87.8384 27.01C89.0518 29.1567 89.6584 31.6533 89.6584 34.5V59H80.4884V36.67C80.4884 34.99 80.1618 33.5433 79.5084 32.33C78.8551 31.1167 77.9451 30.1833 76.7784 29.53C75.6584 28.83 74.3284 28.48 72.7884 28.48C71.2951 28.48 69.9651 28.83 68.7984 29.53C67.6318 30.1833 66.7218 31.1167 66.0684 32.33C65.4151 33.5433 65.0884 34.99 65.0884 36.67V59H55.9184ZM115.473 59.84C111.553 59.84 108.123 58.9533 105.183 57.18C102.243 55.4067 99.9559 53.0033 98.3226 49.97C96.6892 46.9367 95.8726 43.5767 95.8726 39.89C95.8726 36.0633 96.6892 32.68 98.3226 29.74C100.003 26.7533 102.266 24.3967 105.113 22.67C108.006 20.9433 111.226 20.08 114.773 20.08C117.759 20.08 120.373 20.57 122.613 21.55C124.899 22.53 126.836 23.8833 128.423 25.61C130.009 27.3367 131.223 29.32 132.063 31.56C132.903 33.7533 133.323 36.1333 133.323 38.7C133.323 39.3533 133.276 40.03 133.183 40.73C133.136 41.43 133.019 42.0367 132.833 42.55H103.433V35.55H127.653L123.313 38.84C123.733 36.6933 123.616 34.78 122.963 33.1C122.356 31.42 121.329 30.09 119.883 29.11C118.483 28.13 116.779 27.64 114.773 27.64C112.859 27.64 111.156 28.13 109.663 29.11C108.169 30.0433 107.026 31.4433 106.233 33.31C105.486 35.13 105.206 37.3467 105.393 39.96C105.206 42.2933 105.509 44.37 106.303 46.19C107.143 47.9633 108.356 49.34 109.943 50.32C111.576 51.3 113.443 51.79 115.543 51.79C117.643 51.79 119.416 51.3467 120.863 50.46C122.356 49.5733 123.523 48.3833 124.363 46.89L131.783 50.53C131.036 52.35 129.869 53.96 128.283 55.36C126.696 56.76 124.806 57.8567 122.613 58.65C120.466 59.4433 118.086 59.84 115.473 59.84ZM164.265 59.84C161.605 59.84 159.295 59.3967 157.335 58.51C155.375 57.6233 153.859 56.3633 152.785 54.73C151.712 53.05 151.175 51.1133 151.175 48.92C151.175 46.82 151.642 44.9533 152.575 43.32C153.509 41.64 154.955 40.24 156.915 39.12C158.875 38 161.349 37.2067 164.335 36.74L176.795 34.71V41.71L166.085 43.53C164.265 43.8567 162.912 44.44 162.025 45.28C161.139 46.12 160.695 47.2167 160.695 48.57C160.695 49.8767 161.185 50.9267 162.165 51.72C163.192 52.4667 164.452 52.84 165.945 52.84C167.859 52.84 169.539 52.4433 170.985 51.65C172.479 50.81 173.622 49.6667 174.415 48.22C175.255 46.7733 175.675 45.1867 175.675 43.46V33.66C175.675 32.0267 175.022 30.6733 173.715 29.6C172.455 28.48 170.775 27.92 168.675 27.92C166.715 27.92 164.965 28.4567 163.425 29.53C161.932 30.5567 160.835 31.9333 160.135 33.66L152.645 30.02C153.392 28.0133 154.559 26.2867 156.145 24.84C157.779 23.3467 159.692 22.18 161.885 21.34C164.079 20.5 166.459 20.08 169.025 20.08C172.152 20.08 174.905 20.6633 177.285 21.83C179.665 22.95 181.509 24.5367 182.815 26.59C184.169 28.5967 184.845 30.9533 184.845 33.66V59H176.165V52.49L178.125 52.35C177.145 53.9833 175.979 55.36 174.625 56.48C173.272 57.5533 171.732 58.3933 170.005 59C168.279 59.56 166.365 59.84 164.265 59.84ZM211.661 59.84C207.881 59.84 204.474 58.9767 201.441 57.25C198.454 55.4767 196.097 53.0967 194.371 50.11C192.644 47.0767 191.781 43.67 191.781 39.89C191.781 36.11 192.644 32.7267 194.371 29.74C196.097 26.7533 198.454 24.3967 201.441 22.67C204.474 20.9433 207.881 20.08 211.661 20.08C214.367 20.08 216.887 20.57 219.221 21.55C221.554 22.4833 223.561 23.79 225.241 25.47C226.967 27.1033 228.204 29.0633 228.951 31.35L220.901 34.85C220.201 32.9367 219.011 31.3967 217.331 30.23C215.697 29.0633 213.807 28.48 211.661 28.48C209.654 28.48 207.857 28.97 206.271 29.95C204.731 30.93 203.517 32.2833 202.631 34.01C201.744 35.7367 201.301 37.72 201.301 39.96C201.301 42.2 201.744 44.1833 202.631 45.91C203.517 47.6367 204.731 48.99 206.271 49.97C207.857 50.95 209.654 51.44 211.661 51.44C213.854 51.44 215.767 50.8567 217.401 49.69C219.034 48.5233 220.201 46.96 220.901 45L228.951 48.64C228.204 50.7867 226.991 52.7233 225.311 54.45C223.631 56.13 221.624 57.46 219.291 58.44C216.957 59.3733 214.414 59.84 211.661 59.84ZM247.322 59.84C244.662 59.84 242.352 59.3967 240.392 58.51C238.432 57.6233 236.915 56.3633 235.842 54.73C234.769 53.05 234.232 51.1133 234.232 48.92C234.232 46.82 234.699 44.9533 235.632 43.32C236.565 41.64 238.012 40.24 239.972 39.12C241.932 38 244.405 37.2067 247.392 36.74L259.852 34.71V41.71L249.142 43.53C247.322 43.8567 245.969 44.44 245.082 45.28C244.195 46.12 243.752 47.2167 243.752 48.57C243.752 49.8767 244.242 50.9267 245.222 51.72C246.249 52.4667 247.509 52.84 249.002 52.84C250.915 52.84 252.595 52.4433 254.042 51.65C255.535 50.81 256.679 49.6667 257.472 48.22C258.312 46.7733 258.732 45.1867 258.732 43.46V33.66C258.732 32.0267 258.079 30.6733 256.772 29.6C255.512 28.48 253.832 27.92 251.732 27.92C249.772 27.92 248.022 28.4567 246.482 29.53C244.989 30.5567 243.892 31.9333 243.192 33.66L235.702 30.02C236.449 28.0133 237.615 26.2867 239.202 24.84C240.835 23.3467 242.749 22.18 244.942 21.34C247.135 20.5 249.515 20.08 252.082 20.08C255.209 20.08 257.962 20.6633 260.342 21.83C262.722 22.95 264.565 24.5367 265.872 26.59C267.225 28.5967 267.902 30.9533 267.902 33.66V59H259.222V52.49L261.182 52.35C260.202 53.9833 259.035 55.36 257.682 56.48C256.329 57.5533 254.789 58.3933 253.062 59C251.335 59.56 249.422 59.84 247.322 59.84ZM294.087 59.84C290.401 59.84 287.111 58.9767 284.217 57.25C281.324 55.4767 279.037 53.0733 277.357 50.04C275.677 47.0067 274.837 43.6467 274.837 39.96C274.837 36.2267 275.677 32.8667 277.357 29.88C279.037 26.8933 281.324 24.5133 284.217 22.74C287.157 20.9667 290.424 20.08 294.017 20.08C296.911 20.08 299.477 20.6633 301.717 21.83C304.004 22.95 305.801 24.5367 307.107 26.59L305.707 28.48V6.01H314.877V59H306.197V51.65L307.177 53.47C305.871 55.5233 304.051 57.11 301.717 58.23C299.384 59.3033 296.841 59.84 294.087 59.84ZM295.067 51.44C297.167 51.44 299.011 50.95 300.597 49.97C302.184 48.99 303.421 47.6367 304.307 45.91C305.241 44.1833 305.707 42.2 305.707 39.96C305.707 37.7667 305.241 35.8067 304.307 34.08C303.421 32.3067 302.184 30.93 300.597 29.95C299.011 28.97 297.167 28.48 295.067 28.48C293.014 28.48 291.171 28.9933 289.537 30.02C287.904 31 286.621 32.3533 285.687 34.08C284.801 35.76 284.357 37.72 284.357 39.96C284.357 42.2 284.801 44.1833 285.687 45.91C286.621 47.6367 287.904 48.99 289.537 49.97C291.171 50.95 293.014 51.44 295.067 51.44ZM341.469 59.84C337.549 59.84 334.119 58.9533 331.179 57.18C328.239 55.4067 325.952 53.0033 324.319 49.97C322.685 46.9367 321.869 43.5767 321.869 39.89C321.869 36.0633 322.685 32.68 324.319 29.74C325.999 26.7533 328.262 24.3967 331.109 22.67C334.002 20.9433 337.222 20.08 340.769 20.08C343.755 20.08 346.369 20.57 348.609 21.55C350.895 22.53 352.832 23.8833 354.419 25.61C356.005 27.3367 357.219 29.32 358.059 31.56C358.899 33.7533 359.319 36.1333 359.319 38.7C359.319 39.3533 359.272 40.03 359.179 40.73C359.132 41.43 359.015 42.0367 358.829 42.55H329.429V35.55H353.649L349.309 38.84C349.729 36.6933 349.612 34.78 348.959 33.1C348.352 31.42 347.325 30.09 345.879 29.11C344.479 28.13 342.775 27.64 340.769 27.64C338.855 27.64 337.152 28.13 335.659 29.11C334.165 30.0433 333.022 31.4433 332.229 33.31C331.482 35.13 331.202 37.3467 331.389 39.96C331.202 42.2933 331.505 44.37 332.299 46.19C333.139 47.9633 334.352 49.34 335.939 50.32C337.572 51.3 339.439 51.79 341.539 51.79C343.639 51.79 345.412 51.3467 346.859 50.46C348.352 49.5733 349.519 48.3833 350.359 46.89L357.779 50.53C357.032 52.35 355.865 53.96 354.279 55.36C352.692 56.76 350.802 57.8567 348.609 58.65C346.462 59.4433 344.082 59.84 341.469 59.84ZM366.27 59V20.92H374.88V29.74L373.9 28.27C374.6 25.5167 376 23.4633 378.1 22.11C380.2 20.7567 382.673 20.08 385.52 20.08C388.647 20.08 391.4 20.8967 393.78 22.53C396.16 24.1633 397.7 26.31 398.4 28.97L395.81 29.18C396.977 26.1467 398.727 23.8833 401.06 22.39C403.393 20.85 406.077 20.08 409.11 20.08C411.817 20.08 414.22 20.6867 416.32 21.9C418.467 23.1133 420.147 24.8167 421.36 27.01C422.573 29.1567 423.18 31.6533 423.18 34.5V59H414.01V36.67C414.01 34.99 413.707 33.5433 413.1 32.33C412.493 31.1167 411.653 30.1833 410.58 29.53C409.507 28.83 408.2 28.48 406.66 28.48C405.213 28.48 403.93 28.83 402.81 29.53C401.69 30.1833 400.827 31.1167 400.22 32.33C399.613 33.5433 399.31 34.99 399.31 36.67V59H390.14V36.67C390.14 34.99 389.837 33.5433 389.23 32.33C388.623 31.1167 387.76 30.1833 386.64 29.53C385.567 28.83 384.283 28.48 382.79 28.48C381.343 28.48 380.06 28.83 378.94 29.53C377.82 30.1833 376.957 31.1167 376.35 32.33C375.743 33.5433 375.44 34.99 375.44 36.67V59H366.27ZM434.874 74.4C433.848 74.4 432.844 74.3067 431.864 74.12C430.884 73.98 429.998 73.7 429.204 73.28V65.65C429.811 65.79 430.534 65.93 431.374 66.07C432.261 66.21 433.078 66.28 433.824 66.28C435.924 66.28 437.441 65.79 438.374 64.81C439.354 63.8767 440.218 62.6167 440.964 61.03L443.484 55.15L443.344 62.85L426.754 20.92H436.624L448.244 51.86H444.744L456.294 20.92H466.234L449.644 62.85C448.664 65.2767 447.474 67.3533 446.074 69.08C444.674 70.8067 443.041 72.1133 441.174 73C439.354 73.9333 437.254 74.4 434.874 74.4Z" fill="#0F2854"/>
</svg>
